<svg width="512" height="512" viewBox="0 0 24 24" xmlns="http://www.w3.org/2000/svg">
    <path fill="#000000" d="m23.6 9.593l-.033-.086L20.3.98a.851.851 0 0 0-.336-.405a.875.875 0 0 0-1 .054a.875.875 0 0 0-.29.44L16.47 7.818H7.537L5.332 1.07a.857.857 0 0 0-.29-.441a.875.875 0 0 0-1-.054a.859.859 0 0 0-.336.405L.433 9.502l-.032.086a6.066 6.066 0 0 0 2.012 7.01l.01.009l.03.021l4.977 3.727l2.462 1.863l1.5 1.132a1.008 1.008 0 0 0 1.22 0l1.499-1.132l2.461-1.863l5.006-3.75l.013-.01a6.068 6.068 0 0 0 2.01-7.002z"/>
</svg>