<?xml version="1.0" encoding="UTF-8" standalone="no"?>
<svg
   xmlns:dc="http://purl.org/dc/elements/1.1/"
   xmlns:cc="http://creativecommons.org/ns#"
   xmlns:rdf="http://www.w3.org/1999/02/22-rdf-syntax-ns#"
   xmlns:svg="http://www.w3.org/2000/svg"
   xmlns="http://www.w3.org/2000/svg"
   id="svg102"
   style="clip-rule:evenodd;fill-rule:evenodd;stroke-linejoin:round;stroke-miterlimit:1.41420996"
   xml:space="preserve"
   version="1.1"
   viewBox="0 0 1288.376 1577.183"
   height="1577.183"
   width="1288.376"><metadata
   id="metadata108"><rdf:RDF><cc:Work
       rdf:about=""><dc:format>image/svg+xml</dc:format><dc:type
         rdf:resource="http://purl.org/dc/dcmitype/StillImage" /><dc:title></dc:title></cc:Work></rdf:RDF></metadata><defs
   id="defs106" />
    <rect
   style="fill:none"
   height="2000"
   width="2000"
   y="-211.40691"
   x="-355.81396"
   id="Black" />
    <clipPath
   id="_clip1">
        <rect
   height="2000"
   width="2000"
   y="0"
   x="0"
   id="Black1" />
    </clipPath>
    <g
   transform="translate(-355.81395,-211.4069)"
   id="g100"
   clip-path="url(#_clip1)">
        <g
   transform="translate(-5e-5,-1e-4)"
   id="Logo">
            <g
   id="Border">
                <path
   id="path82"
   style="fill:#333333;fill-rule:nonzero"
   d="m 566.624,1372.99 -129.989,-75.18 0.378,-651.22 331.608,-191.156 35.774,-112.961 -448.109,258.313 -0.472,743.604 210.748,121.88 z" />
                <path
   id="path84"
   style="fill:#333333;fill-rule:nonzero"
   d="m 1000.47,229.444 -51.513,29.695 2.021,91.174 50.132,-28.895 563.71,326.044 -0.38,651.208 -101.14,58.31 -0.06,92.38 180.48,-104.04 0.47,-743.608 z" />
            </g>
            <g
   id="g97">
                <path
   id="path87"
   style="fill:#d32f2f"
   d="M 1216.85,893.316 907.109,609.488 898.284,211.407 738.41,716.234 925.978,880.712 617.107,1200.84 l -0.011,201.11 386.834,220.99 409.97,-236.33 -0.04,-130.32 -134.48,-119.72 -5.12,-135.79 -134.95,149.79 -0.1,135.72 98.93,66.91 -121.24,78.93 -139.551,-83.16 -1.792,-194.49 z" />
                <path
   id="path89"
   style="fill:#d32f2f"
   d="m 999.698,1717.72 -382.792,-222.22 -0.038,57.83 389.062,235.26 407.61,-234.72 0.05,-75.25 z" />
                <path
   id="path91"
   style="fill:#d32f2f"
   d="m 1438.86,1168.59 0.09,-133.71 -90.19,66.79 z" />
                <path
   id="path93"
   style="fill:#d32f2f"
   d="m 626.605,753.621 -0.14,207.168 -0.035,54.161 138.862,-130.569 z" />
                <path
   id="path95"
   style="fill:#d32f2f"
   d="m 1129,708.905 0.12,-176.25 -100.34,88.057 z" />
            </g>
        </g>
    </g>
</svg>