<?xml version="1.0" encoding="utf-8"?>
<!DOCTYPE svg PUBLIC "-//W3C//DTD SVG 1.1//EN" "http://www.w3.org/Graphics/SVG/1.1/DTD/svg11.dtd">
<svg version="1.1" id="Layer_1" xmlns="http://www.w3.org/2000/svg" xmlns:xlink="http://www.w3.org/1999/xlink" x="0px" y="0px"
width="1160px" height="1160px" viewBox="0 0 1160 1160" enable-background="new 0 0 1160 1160" xml:space="preserve">
<rect x="0" y="0" width="1160" height="1160" fill="rgb(255,255,255)" /><g transform="translate(80,80)"><g transform="translate(360,0) scale(0.4,0.4)"><g transform="" style="fill: rgb(51, 51, 51);">
<rect width="100" height="100"/>
</g></g><g transform="translate(480,0) scale(0.4,0.4)"><g transform="" style="fill: rgb(51, 51, 51);">
<rect width="100" height="100"/>
</g></g><g transform="translate(560,0) scale(0.4,0.4)"><g transform="" style="fill: rgb(51, 51, 51);">
<rect width="100" height="100"/>
</g></g><g transform="translate(600,0) scale(0.4,0.4)"><g transform="" style="fill: rgb(51, 51, 51);">
<rect width="100" height="100"/>
</g></g><g transform="translate(320,40) scale(0.4,0.4)"><g transform="" style="fill: rgb(51, 51, 51);">
<rect width="100" height="100"/>
</g></g><g transform="translate(360,40) scale(0.4,0.4)"><g transform="" style="fill: rgb(51, 51, 51);">
<rect width="100" height="100"/>
</g></g><g transform="translate(440,40) scale(0.4,0.4)"><g transform="" style="fill: rgb(51, 51, 51);">
<rect width="100" height="100"/>
</g></g><g transform="translate(520,40) scale(0.4,0.4)"><g transform="" style="fill: rgb(51, 51, 51);">
<rect width="100" height="100"/>
</g></g><g transform="translate(560,40) scale(0.4,0.4)"><g transform="" style="fill: rgb(51, 51, 51);">
<rect width="100" height="100"/>
</g></g><g transform="translate(600,40) scale(0.4,0.4)"><g transform="" style="fill: rgb(51, 51, 51);">
<rect width="100" height="100"/>
</g></g><g transform="translate(640,40) scale(0.4,0.4)"><g transform="" style="fill: rgb(51, 51, 51);">
<rect width="100" height="100"/>
</g></g><g transform="translate(400,80) scale(0.4,0.4)"><g transform="" style="fill: rgb(51, 51, 51);">
<rect width="100" height="100"/>
</g></g><g transform="translate(560,80) scale(0.4,0.4)"><g transform="" style="fill: rgb(51, 51, 51);">
<rect width="100" height="100"/>
</g></g><g transform="translate(640,80) scale(0.4,0.4)"><g transform="" style="fill: rgb(51, 51, 51);">
<rect width="100" height="100"/>
</g></g><g transform="translate(480,120) scale(0.4,0.4)"><g transform="" style="fill: rgb(51, 51, 51);">
<rect width="100" height="100"/>
</g></g><g transform="translate(560,120) scale(0.4,0.4)"><g transform="" style="fill: rgb(51, 51, 51);">
<rect width="100" height="100"/>
</g></g><g transform="translate(320,160) scale(0.4,0.4)"><g transform="" style="fill: rgb(51, 51, 51);">
<rect width="100" height="100"/>
</g></g><g transform="translate(360,160) scale(0.4,0.4)"><g transform="" style="fill: rgb(51, 51, 51);">
<rect width="100" height="100"/>
</g></g><g transform="translate(400,160) scale(0.4,0.4)"><g transform="" style="fill: rgb(51, 51, 51);">
<rect width="100" height="100"/>
</g></g><g transform="translate(480,160) scale(0.4,0.4)"><g transform="" style="fill: rgb(51, 51, 51);">
<rect width="100" height="100"/>
</g></g><g transform="translate(600,160) scale(0.4,0.4)"><g transform="" style="fill: rgb(51, 51, 51);">
<rect width="100" height="100"/>
</g></g><g transform="translate(360,200) scale(0.4,0.4)"><g transform="" style="fill: rgb(51, 51, 51);">
<rect width="100" height="100"/>
</g></g><g transform="translate(400,200) scale(0.4,0.4)"><g transform="" style="fill: rgb(51, 51, 51);">
<rect width="100" height="100"/>
</g></g><g transform="translate(480,200) scale(0.4,0.4)"><g transform="" style="fill: rgb(51, 51, 51);">
<rect width="100" height="100"/>
</g></g><g transform="translate(520,200) scale(0.4,0.4)"><g transform="" style="fill: rgb(51, 51, 51);">
<rect width="100" height="100"/>
</g></g><g transform="translate(560,200) scale(0.4,0.4)"><g transform="" style="fill: rgb(51, 51, 51);">
<rect width="100" height="100"/>
</g></g><g transform="translate(600,200) scale(0.4,0.4)"><g transform="" style="fill: rgb(51, 51, 51);">
<rect width="100" height="100"/>
</g></g><g transform="translate(320,240) scale(0.4,0.4)"><g transform="" style="fill: rgb(51, 51, 51);">
<rect width="100" height="100"/>
</g></g><g transform="translate(400,240) scale(0.4,0.4)"><g transform="" style="fill: rgb(51, 51, 51);">
<rect width="100" height="100"/>
</g></g><g transform="translate(480,240) scale(0.4,0.4)"><g transform="" style="fill: rgb(51, 51, 51);">
<rect width="100" height="100"/>
</g></g><g transform="translate(560,240) scale(0.4,0.4)"><g transform="" style="fill: rgb(51, 51, 51);">
<rect width="100" height="100"/>
</g></g><g transform="translate(640,240) scale(0.4,0.4)"><g transform="" style="fill: rgb(51, 51, 51);">
<rect width="100" height="100"/>
</g></g><g transform="translate(360,280) scale(0.4,0.4)"><g transform="" style="fill: rgb(51, 51, 51);">
<rect width="100" height="100"/>
</g></g><g transform="translate(400,280) scale(0.4,0.4)"><g transform="" style="fill: rgb(51, 51, 51);">
<rect width="100" height="100"/>
</g></g><g transform="translate(480,280) scale(0.4,0.4)"><g transform="" style="fill: rgb(51, 51, 51);">
<rect width="100" height="100"/>
</g></g><g transform="translate(520,280) scale(0.4,0.4)"><g transform="" style="fill: rgb(51, 51, 51);">
<rect width="100" height="100"/>
</g></g><g transform="translate(640,280) scale(0.4,0.4)"><g transform="" style="fill: rgb(51, 51, 51);">
<rect width="100" height="100"/>
</g></g><g transform="translate(0,320) scale(0.4,0.4)"><g transform="" style="fill: rgb(51, 51, 51);">
<rect width="100" height="100"/>
</g></g><g transform="translate(80,320) scale(0.4,0.4)"><g transform="" style="fill: rgb(51, 51, 51);">
<rect width="100" height="100"/>
</g></g><g transform="translate(160,320) scale(0.4,0.4)"><g transform="" style="fill: rgb(51, 51, 51);">
<rect width="100" height="100"/>
</g></g><g transform="translate(240,320) scale(0.4,0.4)"><g transform="" style="fill: rgb(51, 51, 51);">
<rect width="100" height="100"/>
</g></g><g transform="translate(360,320) scale(0.4,0.4)"><g transform="" style="fill: rgb(51, 51, 51);">
<rect width="100" height="100"/>
</g></g><g transform="translate(400,320) scale(0.4,0.4)"><g transform="" style="fill: rgb(51, 51, 51);">
<rect width="100" height="100"/>
</g></g><g transform="translate(480,320) scale(0.4,0.4)"><g transform="" style="fill: rgb(51, 51, 51);">
<rect width="100" height="100"/>
</g></g><g transform="translate(520,320) scale(0.4,0.4)"><g transform="" style="fill: rgb(51, 51, 51);">
<rect width="100" height="100"/>
</g></g><g transform="translate(800,320) scale(0.4,0.4)"><g transform="" style="fill: rgb(51, 51, 51);">
<rect width="100" height="100"/>
</g></g><g transform="translate(920,320) scale(0.4,0.4)"><g transform="" style="fill: rgb(51, 51, 51);">
<rect width="100" height="100"/>
</g></g><g transform="translate(0,360) scale(0.4,0.4)"><g transform="" style="fill: rgb(51, 51, 51);">
<rect width="100" height="100"/>
</g></g><g transform="translate(120,360) scale(0.4,0.4)"><g transform="" style="fill: rgb(51, 51, 51);">
<rect width="100" height="100"/>
</g></g><g transform="translate(200,360) scale(0.4,0.4)"><g transform="" style="fill: rgb(51, 51, 51);">
<rect width="100" height="100"/>
</g></g><g transform="translate(280,360) scale(0.4,0.4)"><g transform="" style="fill: rgb(51, 51, 51);">
<rect width="100" height="100"/>
</g></g><g transform="translate(320,360) scale(0.4,0.4)"><g transform="" style="fill: rgb(51, 51, 51);">
<rect width="100" height="100"/>
</g></g><g transform="translate(360,360) scale(0.4,0.4)"><g transform="" style="fill: rgb(51, 51, 51);">
<rect width="100" height="100"/>
</g></g><g transform="translate(480,360) scale(0.4,0.4)"><g transform="" style="fill: rgb(51, 51, 51);">
<rect width="100" height="100"/>
</g></g><g transform="translate(520,360) scale(0.4,0.4)"><g transform="" style="fill: rgb(51, 51, 51);">
<rect width="100" height="100"/>
</g></g><g transform="translate(560,360) scale(0.4,0.4)"><g transform="" style="fill: rgb(51, 51, 51);">
<rect width="100" height="100"/>
</g></g><g transform="translate(640,360) scale(0.4,0.4)"><g transform="" style="fill: rgb(51, 51, 51);">
<rect width="100" height="100"/>
</g></g><g transform="translate(680,360) scale(0.4,0.4)"><g transform="" style="fill: rgb(51, 51, 51);">
<rect width="100" height="100"/>
</g></g><g transform="translate(720,360) scale(0.4,0.4)"><g transform="" style="fill: rgb(51, 51, 51);">
<rect width="100" height="100"/>
</g></g><g transform="translate(760,360) scale(0.4,0.4)"><g transform="" style="fill: rgb(51, 51, 51);">
<rect width="100" height="100"/>
</g></g><g transform="translate(960,360) scale(0.4,0.4)"><g transform="" style="fill: rgb(51, 51, 51);">
<rect width="100" height="100"/>
</g></g><g transform="translate(0,400) scale(0.4,0.4)"><g transform="" style="fill: rgb(51, 51, 51);">
<rect width="100" height="100"/>
</g></g><g transform="translate(40,400) scale(0.4,0.4)"><g transform="" style="fill: rgb(51, 51, 51);">
<rect width="100" height="100"/>
</g></g><g transform="translate(120,400) scale(0.4,0.4)"><g transform="" style="fill: rgb(51, 51, 51);">
<rect width="100" height="100"/>
</g></g><g transform="translate(160,400) scale(0.4,0.4)"><g transform="" style="fill: rgb(51, 51, 51);">
<rect width="100" height="100"/>
</g></g><g transform="translate(240,400) scale(0.4,0.4)"><g transform="" style="fill: rgb(51, 51, 51);">
<rect width="100" height="100"/>
</g></g><g transform="translate(280,400) scale(0.4,0.4)"><g transform="" style="fill: rgb(51, 51, 51);">
<rect width="100" height="100"/>
</g></g><g transform="translate(400,400) scale(0.4,0.4)"><g transform="" style="fill: rgb(51, 51, 51);">
<rect width="100" height="100"/>
</g></g><g transform="translate(440,400) scale(0.4,0.4)"><g transform="" style="fill: rgb(51, 51, 51);">
<rect width="100" height="100"/>
</g></g><g transform="translate(520,400) scale(0.4,0.4)"><g transform="" style="fill: rgb(51, 51, 51);">
<rect width="100" height="100"/>
</g></g><g transform="translate(680,400) scale(0.4,0.4)"><g transform="" style="fill: rgb(51, 51, 51);">
<rect width="100" height="100"/>
</g></g><g transform="translate(800,400) scale(0.4,0.4)"><g transform="" style="fill: rgb(51, 51, 51);">
<rect width="100" height="100"/>
</g></g><g transform="translate(880,400) scale(0.4,0.4)"><g transform="" style="fill: rgb(51, 51, 51);">
<rect width="100" height="100"/>
</g></g><g transform="translate(920,400) scale(0.4,0.4)"><g transform="" style="fill: rgb(51, 51, 51);">
<rect width="100" height="100"/>
</g></g><g transform="translate(960,400) scale(0.4,0.4)"><g transform="" style="fill: rgb(51, 51, 51);">
<rect width="100" height="100"/>
</g></g><g transform="translate(40,440) scale(0.4,0.4)"><g transform="" style="fill: rgb(51, 51, 51);">
<rect width="100" height="100"/>
</g></g><g transform="translate(200,440) scale(0.4,0.4)"><g transform="" style="fill: rgb(51, 51, 51);">
<rect width="100" height="100"/>
</g></g><g transform="translate(320,440) scale(0.4,0.4)"><g transform="" style="fill: rgb(51, 51, 51);">
<rect width="100" height="100"/>
</g></g><g transform="translate(360,440) scale(0.4,0.4)"><g transform="" style="fill: rgb(51, 51, 51);">
<rect width="100" height="100"/>
</g></g><g transform="translate(400,440) scale(0.4,0.4)"><g transform="" style="fill: rgb(51, 51, 51);">
<rect width="100" height="100"/>
</g></g><g transform="translate(480,440) scale(0.4,0.4)"><g transform="" style="fill: rgb(51, 51, 51);">
<rect width="100" height="100"/>
</g></g><g transform="translate(520,440) scale(0.4,0.4)"><g transform="" style="fill: rgb(51, 51, 51);">
<rect width="100" height="100"/>
</g></g><g transform="translate(560,440) scale(0.4,0.4)"><g transform="" style="fill: rgb(51, 51, 51);">
<rect width="100" height="100"/>
</g></g><g transform="translate(600,440) scale(0.4,0.4)"><g transform="" style="fill: rgb(51, 51, 51);">
<rect width="100" height="100"/>
</g></g><g transform="translate(680,440) scale(0.4,0.4)"><g transform="" style="fill: rgb(51, 51, 51);">
<rect width="100" height="100"/>
</g></g><g transform="translate(720,440) scale(0.4,0.4)"><g transform="" style="fill: rgb(51, 51, 51);">
<rect width="100" height="100"/>
</g></g><g transform="translate(920,440) scale(0.4,0.4)"><g transform="" style="fill: rgb(51, 51, 51);">
<rect width="100" height="100"/>
</g></g><g transform="translate(80,480) scale(0.4,0.4)"><g transform="" style="fill: rgb(51, 51, 51);">
<rect width="100" height="100"/>
</g></g><g transform="translate(160,480) scale(0.4,0.4)"><g transform="" style="fill: rgb(51, 51, 51);">
<rect width="100" height="100"/>
</g></g><g transform="translate(240,480) scale(0.4,0.4)"><g transform="" style="fill: rgb(51, 51, 51);">
<rect width="100" height="100"/>
</g></g><g transform="translate(280,480) scale(0.4,0.4)"><g transform="" style="fill: rgb(51, 51, 51);">
<rect width="100" height="100"/>
</g></g><g transform="translate(360,480) scale(0.4,0.4)"><g transform="" style="fill: rgb(51, 51, 51);">
<rect width="100" height="100"/>
</g></g><g transform="translate(520,480) scale(0.4,0.4)"><g transform="" style="fill: rgb(51, 51, 51);">
<rect width="100" height="100"/>
</g></g><g transform="translate(640,480) scale(0.4,0.4)"><g transform="" style="fill: rgb(51, 51, 51);">
<rect width="100" height="100"/>
</g></g><g transform="translate(680,480) scale(0.4,0.4)"><g transform="" style="fill: rgb(51, 51, 51);">
<rect width="100" height="100"/>
</g></g><g transform="translate(720,480) scale(0.4,0.4)"><g transform="" style="fill: rgb(51, 51, 51);">
<rect width="100" height="100"/>
</g></g><g transform="translate(760,480) scale(0.4,0.4)"><g transform="" style="fill: rgb(51, 51, 51);">
<rect width="100" height="100"/>
</g></g><g transform="translate(840,480) scale(0.4,0.4)"><g transform="" style="fill: rgb(51, 51, 51);">
<rect width="100" height="100"/>
</g></g><g transform="translate(920,480) scale(0.4,0.4)"><g transform="" style="fill: rgb(51, 51, 51);">
<rect width="100" height="100"/>
</g></g><g transform="translate(960,480) scale(0.4,0.4)"><g transform="" style="fill: rgb(51, 51, 51);">
<rect width="100" height="100"/>
</g></g><g transform="translate(80,520) scale(0.4,0.4)"><g transform="" style="fill: rgb(51, 51, 51);">
<rect width="100" height="100"/>
</g></g><g transform="translate(160,520) scale(0.4,0.4)"><g transform="" style="fill: rgb(51, 51, 51);">
<rect width="100" height="100"/>
</g></g><g transform="translate(320,520) scale(0.4,0.4)"><g transform="" style="fill: rgb(51, 51, 51);">
<rect width="100" height="100"/>
</g></g><g transform="translate(360,520) scale(0.4,0.4)"><g transform="" style="fill: rgb(51, 51, 51);">
<rect width="100" height="100"/>
</g></g><g transform="translate(440,520) scale(0.4,0.4)"><g transform="" style="fill: rgb(51, 51, 51);">
<rect width="100" height="100"/>
</g></g><g transform="translate(520,520) scale(0.4,0.4)"><g transform="" style="fill: rgb(51, 51, 51);">
<rect width="100" height="100"/>
</g></g><g transform="translate(640,520) scale(0.4,0.4)"><g transform="" style="fill: rgb(51, 51, 51);">
<rect width="100" height="100"/>
</g></g><g transform="translate(680,520) scale(0.4,0.4)"><g transform="" style="fill: rgb(51, 51, 51);">
<rect width="100" height="100"/>
</g></g><g transform="translate(720,520) scale(0.4,0.4)"><g transform="" style="fill: rgb(51, 51, 51);">
<rect width="100" height="100"/>
</g></g><g transform="translate(840,520) scale(0.4,0.4)"><g transform="" style="fill: rgb(51, 51, 51);">
<rect width="100" height="100"/>
</g></g><g transform="translate(960,520) scale(0.4,0.4)"><g transform="" style="fill: rgb(51, 51, 51);">
<rect width="100" height="100"/>
</g></g><g transform="translate(0,560) scale(0.4,0.4)"><g transform="" style="fill: rgb(51, 51, 51);">
<rect width="100" height="100"/>
</g></g><g transform="translate(120,560) scale(0.4,0.4)"><g transform="" style="fill: rgb(51, 51, 51);">
<rect width="100" height="100"/>
</g></g><g transform="translate(160,560) scale(0.4,0.4)"><g transform="" style="fill: rgb(51, 51, 51);">
<rect width="100" height="100"/>
</g></g><g transform="translate(240,560) scale(0.4,0.4)"><g transform="" style="fill: rgb(51, 51, 51);">
<rect width="100" height="100"/>
</g></g><g transform="translate(280,560) scale(0.4,0.4)"><g transform="" style="fill: rgb(51, 51, 51);">
<rect width="100" height="100"/>
</g></g><g transform="translate(320,560) scale(0.4,0.4)"><g transform="" style="fill: rgb(51, 51, 51);">
<rect width="100" height="100"/>
</g></g><g transform="translate(400,560) scale(0.4,0.4)"><g transform="" style="fill: rgb(51, 51, 51);">
<rect width="100" height="100"/>
</g></g><g transform="translate(520,560) scale(0.4,0.4)"><g transform="" style="fill: rgb(51, 51, 51);">
<rect width="100" height="100"/>
</g></g><g transform="translate(560,560) scale(0.4,0.4)"><g transform="" style="fill: rgb(51, 51, 51);">
<rect width="100" height="100"/>
</g></g><g transform="translate(640,560) scale(0.4,0.4)"><g transform="" style="fill: rgb(51, 51, 51);">
<rect width="100" height="100"/>
</g></g><g transform="translate(680,560) scale(0.4,0.4)"><g transform="" style="fill: rgb(51, 51, 51);">
<rect width="100" height="100"/>
</g></g><g transform="translate(760,560) scale(0.4,0.4)"><g transform="" style="fill: rgb(51, 51, 51);">
<rect width="100" height="100"/>
</g></g><g transform="translate(880,560) scale(0.4,0.4)"><g transform="" style="fill: rgb(51, 51, 51);">
<rect width="100" height="100"/>
</g></g><g transform="translate(920,560) scale(0.4,0.4)"><g transform="" style="fill: rgb(51, 51, 51);">
<rect width="100" height="100"/>
</g></g><g transform="translate(960,560) scale(0.4,0.4)"><g transform="" style="fill: rgb(51, 51, 51);">
<rect width="100" height="100"/>
</g></g><g transform="translate(40,600) scale(0.4,0.4)"><g transform="" style="fill: rgb(51, 51, 51);">
<rect width="100" height="100"/>
</g></g><g transform="translate(80,600) scale(0.4,0.4)"><g transform="" style="fill: rgb(51, 51, 51);">
<rect width="100" height="100"/>
</g></g><g transform="translate(120,600) scale(0.4,0.4)"><g transform="" style="fill: rgb(51, 51, 51);">
<rect width="100" height="100"/>
</g></g><g transform="translate(160,600) scale(0.4,0.4)"><g transform="" style="fill: rgb(51, 51, 51);">
<rect width="100" height="100"/>
</g></g><g transform="translate(400,600) scale(0.4,0.4)"><g transform="" style="fill: rgb(51, 51, 51);">
<rect width="100" height="100"/>
</g></g><g transform="translate(440,600) scale(0.4,0.4)"><g transform="" style="fill: rgb(51, 51, 51);">
<rect width="100" height="100"/>
</g></g><g transform="translate(520,600) scale(0.4,0.4)"><g transform="" style="fill: rgb(51, 51, 51);">
<rect width="100" height="100"/>
</g></g><g transform="translate(560,600) scale(0.4,0.4)"><g transform="" style="fill: rgb(51, 51, 51);">
<rect width="100" height="100"/>
</g></g><g transform="translate(600,600) scale(0.4,0.4)"><g transform="" style="fill: rgb(51, 51, 51);">
<rect width="100" height="100"/>
</g></g><g transform="translate(640,600) scale(0.4,0.4)"><g transform="" style="fill: rgb(51, 51, 51);">
<rect width="100" height="100"/>
</g></g><g transform="translate(800,600) scale(0.4,0.4)"><g transform="" style="fill: rgb(51, 51, 51);">
<rect width="100" height="100"/>
</g></g><g transform="translate(920,600) scale(0.4,0.4)"><g transform="" style="fill: rgb(51, 51, 51);">
<rect width="100" height="100"/>
</g></g><g transform="translate(0,640) scale(0.4,0.4)"><g transform="" style="fill: rgb(51, 51, 51);">
<rect width="100" height="100"/>
</g></g><g transform="translate(80,640) scale(0.4,0.4)"><g transform="" style="fill: rgb(51, 51, 51);">
<rect width="100" height="100"/>
</g></g><g transform="translate(120,640) scale(0.4,0.4)"><g transform="" style="fill: rgb(51, 51, 51);">
<rect width="100" height="100"/>
</g></g><g transform="translate(160,640) scale(0.4,0.4)"><g transform="" style="fill: rgb(51, 51, 51);">
<rect width="100" height="100"/>
</g></g><g transform="translate(240,640) scale(0.4,0.4)"><g transform="" style="fill: rgb(51, 51, 51);">
<rect width="100" height="100"/>
</g></g><g transform="translate(280,640) scale(0.4,0.4)"><g transform="" style="fill: rgb(51, 51, 51);">
<rect width="100" height="100"/>
</g></g><g transform="translate(360,640) scale(0.4,0.4)"><g transform="" style="fill: rgb(51, 51, 51);">
<rect width="100" height="100"/>
</g></g><g transform="translate(400,640) scale(0.4,0.4)"><g transform="" style="fill: rgb(51, 51, 51);">
<rect width="100" height="100"/>
</g></g><g transform="translate(480,640) scale(0.4,0.4)"><g transform="" style="fill: rgb(51, 51, 51);">
<rect width="100" height="100"/>
</g></g><g transform="translate(520,640) scale(0.4,0.4)"><g transform="" style="fill: rgb(51, 51, 51);">
<rect width="100" height="100"/>
</g></g><g transform="translate(640,640) scale(0.4,0.4)"><g transform="" style="fill: rgb(51, 51, 51);">
<rect width="100" height="100"/>
</g></g><g transform="translate(680,640) scale(0.4,0.4)"><g transform="" style="fill: rgb(51, 51, 51);">
<rect width="100" height="100"/>
</g></g><g transform="translate(720,640) scale(0.4,0.4)"><g transform="" style="fill: rgb(51, 51, 51);">
<rect width="100" height="100"/>
</g></g><g transform="translate(760,640) scale(0.4,0.4)"><g transform="" style="fill: rgb(51, 51, 51);">
<rect width="100" height="100"/>
</g></g><g transform="translate(800,640) scale(0.4,0.4)"><g transform="" style="fill: rgb(51, 51, 51);">
<rect width="100" height="100"/>
</g></g><g transform="translate(840,640) scale(0.4,0.4)"><g transform="" style="fill: rgb(51, 51, 51);">
<rect width="100" height="100"/>
</g></g><g transform="translate(320,680) scale(0.4,0.4)"><g transform="" style="fill: rgb(51, 51, 51);">
<rect width="100" height="100"/>
</g></g><g transform="translate(400,680) scale(0.4,0.4)"><g transform="" style="fill: rgb(51, 51, 51);">
<rect width="100" height="100"/>
</g></g><g transform="translate(440,680) scale(0.4,0.4)"><g transform="" style="fill: rgb(51, 51, 51);">
<rect width="100" height="100"/>
</g></g><g transform="translate(480,680) scale(0.4,0.4)"><g transform="" style="fill: rgb(51, 51, 51);">
<rect width="100" height="100"/>
</g></g><g transform="translate(600,680) scale(0.4,0.4)"><g transform="" style="fill: rgb(51, 51, 51);">
<rect width="100" height="100"/>
</g></g><g transform="translate(640,680) scale(0.4,0.4)"><g transform="" style="fill: rgb(51, 51, 51);">
<rect width="100" height="100"/>
</g></g><g transform="translate(800,680) scale(0.4,0.4)"><g transform="" style="fill: rgb(51, 51, 51);">
<rect width="100" height="100"/>
</g></g><g transform="translate(840,680) scale(0.4,0.4)"><g transform="" style="fill: rgb(51, 51, 51);">
<rect width="100" height="100"/>
</g></g><g transform="translate(920,680) scale(0.4,0.4)"><g transform="" style="fill: rgb(51, 51, 51);">
<rect width="100" height="100"/>
</g></g><g transform="translate(960,680) scale(0.4,0.4)"><g transform="" style="fill: rgb(51, 51, 51);">
<rect width="100" height="100"/>
</g></g><g transform="translate(360,720) scale(0.4,0.4)"><g transform="" style="fill: rgb(51, 51, 51);">
<rect width="100" height="100"/>
</g></g><g transform="translate(440,720) scale(0.4,0.4)"><g transform="" style="fill: rgb(51, 51, 51);">
<rect width="100" height="100"/>
</g></g><g transform="translate(480,720) scale(0.4,0.4)"><g transform="" style="fill: rgb(51, 51, 51);">
<rect width="100" height="100"/>
</g></g><g transform="translate(520,720) scale(0.4,0.4)"><g transform="" style="fill: rgb(51, 51, 51);">
<rect width="100" height="100"/>
</g></g><g transform="translate(600,720) scale(0.4,0.4)"><g transform="" style="fill: rgb(51, 51, 51);">
<rect width="100" height="100"/>
</g></g><g transform="translate(640,720) scale(0.4,0.4)"><g transform="" style="fill: rgb(51, 51, 51);">
<rect width="100" height="100"/>
</g></g><g transform="translate(720,720) scale(0.4,0.4)"><g transform="" style="fill: rgb(51, 51, 51);">
<rect width="100" height="100"/>
</g></g><g transform="translate(800,720) scale(0.4,0.4)"><g transform="" style="fill: rgb(51, 51, 51);">
<rect width="100" height="100"/>
</g></g><g transform="translate(840,720) scale(0.4,0.4)"><g transform="" style="fill: rgb(51, 51, 51);">
<rect width="100" height="100"/>
</g></g><g transform="translate(920,720) scale(0.4,0.4)"><g transform="" style="fill: rgb(51, 51, 51);">
<rect width="100" height="100"/>
</g></g><g transform="translate(960,720) scale(0.4,0.4)"><g transform="" style="fill: rgb(51, 51, 51);">
<rect width="100" height="100"/>
</g></g><g transform="translate(480,760) scale(0.4,0.4)"><g transform="" style="fill: rgb(51, 51, 51);">
<rect width="100" height="100"/>
</g></g><g transform="translate(520,760) scale(0.4,0.4)"><g transform="" style="fill: rgb(51, 51, 51);">
<rect width="100" height="100"/>
</g></g><g transform="translate(560,760) scale(0.4,0.4)"><g transform="" style="fill: rgb(51, 51, 51);">
<rect width="100" height="100"/>
</g></g><g transform="translate(640,760) scale(0.4,0.4)"><g transform="" style="fill: rgb(51, 51, 51);">
<rect width="100" height="100"/>
</g></g><g transform="translate(800,760) scale(0.4,0.4)"><g transform="" style="fill: rgb(51, 51, 51);">
<rect width="100" height="100"/>
</g></g><g transform="translate(840,760) scale(0.4,0.4)"><g transform="" style="fill: rgb(51, 51, 51);">
<rect width="100" height="100"/>
</g></g><g transform="translate(920,760) scale(0.4,0.4)"><g transform="" style="fill: rgb(51, 51, 51);">
<rect width="100" height="100"/>
</g></g><g transform="translate(960,760) scale(0.4,0.4)"><g transform="" style="fill: rgb(51, 51, 51);">
<rect width="100" height="100"/>
</g></g><g transform="translate(320,800) scale(0.4,0.4)"><g transform="" style="fill: rgb(51, 51, 51);">
<rect width="100" height="100"/>
</g></g><g transform="translate(360,800) scale(0.4,0.4)"><g transform="" style="fill: rgb(51, 51, 51);">
<rect width="100" height="100"/>
</g></g><g transform="translate(440,800) scale(0.4,0.4)"><g transform="" style="fill: rgb(51, 51, 51);">
<rect width="100" height="100"/>
</g></g><g transform="translate(560,800) scale(0.4,0.4)"><g transform="" style="fill: rgb(51, 51, 51);">
<rect width="100" height="100"/>
</g></g><g transform="translate(640,800) scale(0.4,0.4)"><g transform="" style="fill: rgb(51, 51, 51);">
<rect width="100" height="100"/>
</g></g><g transform="translate(680,800) scale(0.4,0.4)"><g transform="" style="fill: rgb(51, 51, 51);">
<rect width="100" height="100"/>
</g></g><g transform="translate(720,800) scale(0.4,0.4)"><g transform="" style="fill: rgb(51, 51, 51);">
<rect width="100" height="100"/>
</g></g><g transform="translate(760,800) scale(0.4,0.4)"><g transform="" style="fill: rgb(51, 51, 51);">
<rect width="100" height="100"/>
</g></g><g transform="translate(800,800) scale(0.4,0.4)"><g transform="" style="fill: rgb(51, 51, 51);">
<rect width="100" height="100"/>
</g></g><g transform="translate(840,800) scale(0.4,0.4)"><g transform="" style="fill: rgb(51, 51, 51);">
<rect width="100" height="100"/>
</g></g><g transform="translate(920,800) scale(0.4,0.4)"><g transform="" style="fill: rgb(51, 51, 51);">
<rect width="100" height="100"/>
</g></g><g transform="translate(960,800) scale(0.4,0.4)"><g transform="" style="fill: rgb(51, 51, 51);">
<rect width="100" height="100"/>
</g></g><g transform="translate(400,840) scale(0.4,0.4)"><g transform="" style="fill: rgb(51, 51, 51);">
<rect width="100" height="100"/>
</g></g><g transform="translate(440,840) scale(0.4,0.4)"><g transform="" style="fill: rgb(51, 51, 51);">
<rect width="100" height="100"/>
</g></g><g transform="translate(640,840) scale(0.4,0.4)"><g transform="" style="fill: rgb(51, 51, 51);">
<rect width="100" height="100"/>
</g></g><g transform="translate(760,840) scale(0.4,0.4)"><g transform="" style="fill: rgb(51, 51, 51);">
<rect width="100" height="100"/>
</g></g><g transform="translate(800,840) scale(0.4,0.4)"><g transform="" style="fill: rgb(51, 51, 51);">
<rect width="100" height="100"/>
</g></g><g transform="translate(840,840) scale(0.4,0.4)"><g transform="" style="fill: rgb(51, 51, 51);">
<rect width="100" height="100"/>
</g></g><g transform="translate(880,840) scale(0.4,0.4)"><g transform="" style="fill: rgb(51, 51, 51);">
<rect width="100" height="100"/>
</g></g><g transform="translate(320,880) scale(0.4,0.4)"><g transform="" style="fill: rgb(51, 51, 51);">
<rect width="100" height="100"/>
</g></g><g transform="translate(360,880) scale(0.4,0.4)"><g transform="" style="fill: rgb(51, 51, 51);">
<rect width="100" height="100"/>
</g></g><g transform="translate(520,880) scale(0.4,0.4)"><g transform="" style="fill: rgb(51, 51, 51);">
<rect width="100" height="100"/>
</g></g><g transform="translate(600,880) scale(0.4,0.4)"><g transform="" style="fill: rgb(51, 51, 51);">
<rect width="100" height="100"/>
</g></g><g transform="translate(800,880) scale(0.4,0.4)"><g transform="" style="fill: rgb(51, 51, 51);">
<rect width="100" height="100"/>
</g></g><g transform="translate(960,880) scale(0.4,0.4)"><g transform="" style="fill: rgb(51, 51, 51);">
<rect width="100" height="100"/>
</g></g><g transform="translate(440,920) scale(0.4,0.4)"><g transform="" style="fill: rgb(51, 51, 51);">
<rect width="100" height="100"/>
</g></g><g transform="translate(600,920) scale(0.4,0.4)"><g transform="" style="fill: rgb(51, 51, 51);">
<rect width="100" height="100"/>
</g></g><g transform="translate(640,920) scale(0.4,0.4)"><g transform="" style="fill: rgb(51, 51, 51);">
<rect width="100" height="100"/>
</g></g><g transform="translate(800,920) scale(0.4,0.4)"><g transform="" style="fill: rgb(51, 51, 51);">
<rect width="100" height="100"/>
</g></g><g transform="translate(840,920) scale(0.4,0.4)"><g transform="" style="fill: rgb(51, 51, 51);">
<rect width="100" height="100"/>
</g></g><g transform="translate(920,920) scale(0.4,0.4)"><g transform="" style="fill: rgb(51, 51, 51);">
<rect width="100" height="100"/>
</g></g><g transform="translate(320,960) scale(0.4,0.4)"><g transform="" style="fill: rgb(51, 51, 51);">
<rect width="100" height="100"/>
</g></g><g transform="translate(360,960) scale(0.4,0.4)"><g transform="" style="fill: rgb(51, 51, 51);">
<rect width="100" height="100"/>
</g></g><g transform="translate(480,960) scale(0.4,0.4)"><g transform="" style="fill: rgb(51, 51, 51);">
<rect width="100" height="100"/>
</g></g><g transform="translate(640,960) scale(0.4,0.4)"><g transform="" style="fill: rgb(51, 51, 51);">
<rect width="100" height="100"/>
</g></g><g transform="translate(680,960) scale(0.4,0.4)"><g transform="" style="fill: rgb(51, 51, 51);">
<rect width="100" height="100"/>
</g></g><g transform="translate(720,960) scale(0.4,0.4)"><g transform="" style="fill: rgb(51, 51, 51);">
<rect width="100" height="100"/>
</g></g><g transform="translate(760,960) scale(0.4,0.4)"><g transform="" style="fill: rgb(51, 51, 51);">
<rect width="100" height="100"/>
</g></g><g transform="translate(920,960) scale(0.4,0.4)"><g transform="" style="fill: rgb(51, 51, 51);">
<rect width="100" height="100"/>
</g></g><g transform="translate(960,960) scale(0.4,0.4)"><g transform="" style="fill: rgb(51, 51, 51);">
<rect width="100" height="100"/>
</g></g><g transform="translate(0,0) scale(2.8, 2.8)"><g transform="" style="fill: rgb(51, 51, 51);">
<g>
	<rect x="15" y="15" style="fill:none;" width="70" height="70"/>
	<path d="M85,0H15H0v15v70v15h15h70h15V85V15V0H85z M85,85H15V15h70V85z"/>
</g>
</g></g><g transform="translate(720,0) scale(2.8, 2.8)"><g transform="" style="fill: rgb(51, 51, 51);">
<g>
	<rect x="15" y="15" style="fill:none;" width="70" height="70"/>
	<path d="M85,0H15H0v15v70v15h15h70h15V85V15V0H85z M85,85H15V15h70V85z"/>
</g>
</g></g><g transform="translate(0,720) scale(2.8, 2.8)"><g transform="" style="fill: rgb(51, 51, 51);">
<g>
	<rect x="15" y="15" style="fill:none;" width="70" height="70"/>
	<path d="M85,0H15H0v15v70v15h15h70h15V85V15V0H85z M85,85H15V15h70V85z"/>
</g>
</g></g><g transform="translate(80,80) scale(1.2, 1.2)"><g transform="" style="fill: rgb(51, 51, 51);">
<rect width="100" height="100"/>
</g></g><g transform="translate(800,80) scale(1.2, 1.2)"><g transform="" style="fill: rgb(51, 51, 51);">
<rect width="100" height="100"/>
</g></g><g transform="translate(80,800) scale(1.2, 1.2)"><g transform="" style="fill: rgb(51, 51, 51);">
<rect width="100" height="100"/>
</g></g></g></svg>